<svg width="72" height="72" viewBox="0 0 72 72" fill="none" xmlns="http://www.w3.org/2000/svg">
<rect width="72" height="72" fill="#F5F5F5"/>
<g filter="url(#filter0_d_8_5371)">
<path d="M68 32C68 49.6731 53.6731 64 36 64C18.3269 64 4 49.6731 4 32C4 14.3269 18.3269 0 36 0C53.6731 0 68 14.3269 68 32Z" fill="#91FF97"/>
<path d="M67.5 32C67.5 49.397 53.397 63.5 36 63.5C18.603 63.5 4.5 49.397 4.5 32C4.5 14.603 18.603 0.5 36 0.5C53.397 0.5 67.5 14.603 67.5 32Z" stroke="white"/>
</g>
<path d="M14.1981 24.7273L12.9907 32H12.5468L13.7542 24.7273H14.1981ZM15.9621 28.4631L15.3762 32H14.9429L15.852 26.5455H16.2746L16.1325 27.4084H16.1752C16.3456 27.1267 16.5871 26.9006 16.8996 26.7301C17.2121 26.5597 17.5625 26.4744 17.9507 26.4744C18.3153 26.4744 18.6243 26.5526 18.8776 26.7088C19.1309 26.8651 19.312 27.0876 19.4209 27.3764C19.5298 27.6629 19.5511 28.005 19.4848 28.4027L18.8847 32H18.4514L19.048 28.4205C19.1238 27.9564 19.0504 27.5836 18.8279 27.3018C18.6077 27.0178 18.2715 26.8757 17.8193 26.8757C17.5139 26.8757 17.2298 26.942 16.9671 27.0746C16.7066 27.2071 16.4877 27.393 16.3101 27.6321C16.1325 27.8688 16.0165 28.1458 15.9621 28.4631ZM25.3868 26.5455L22.5068 32H22.0168L20.955 26.5455H21.3989L22.3151 31.4425H22.3541L24.9003 26.5455H25.3868ZM27.7492 32.1136C27.2568 32.1136 26.8484 31.9917 26.5241 31.7479C26.1997 31.504 25.9736 31.1702 25.8458 30.7464C25.718 30.3227 25.699 29.8397 25.789 29.2976C25.8789 28.7531 26.0589 28.2678 26.3287 27.8416C26.5986 27.4155 26.9289 27.0793 27.3195 26.8331C27.7101 26.5869 28.1315 26.4638 28.5837 26.4638C28.8891 26.4638 29.1673 26.5253 29.4182 26.6484C29.6715 26.7715 29.8846 26.9479 30.0574 27.1776C30.2303 27.4048 30.3498 27.6806 30.4161 28.005C30.4824 28.3293 30.4824 28.6939 30.4161 29.0987L30.3664 29.3686H26.0482L26.1157 28.9744H29.9971C30.0634 28.5814 30.0444 28.2263 29.9403 27.9091C29.8361 27.5895 29.6633 27.3362 29.4218 27.1491C29.1827 26.9621 28.8891 26.8686 28.5411 26.8686C28.186 26.8686 27.8474 26.9716 27.5255 27.1776C27.2059 27.3812 26.9313 27.6534 26.7016 27.9943C26.4743 28.3352 26.3228 28.7105 26.2471 29.12L26.2045 29.3402C26.1287 29.8089 26.1382 30.2221 26.2329 30.5795C26.3299 30.9347 26.5099 31.2128 26.7726 31.4141C27.0354 31.6129 27.3787 31.7124 27.8025 31.7124C28.0984 31.7124 28.3612 31.6626 28.5908 31.5632C28.8228 31.4614 29.0193 31.3383 29.1803 31.1939C29.3437 31.0495 29.4715 30.9098 29.5638 30.7749L29.9225 30.9347C29.8136 31.117 29.6573 31.2992 29.4537 31.4815C29.2501 31.6615 29.0051 31.8118 28.7187 31.9325C28.4322 32.0533 28.109 32.1136 27.7492 32.1136ZM35.6034 27.7209L35.1879 27.8203C35.1524 27.6191 35.0885 27.4474 34.9962 27.3054C34.9039 27.161 34.776 27.0509 34.6127 26.9751C34.4517 26.897 34.2493 26.858 34.0054 26.858C33.5959 26.858 33.2467 26.9598 32.9578 27.1634C32.669 27.367 32.4986 27.6297 32.4465 27.9517C32.4039 28.2074 32.4536 28.4181 32.5956 28.5838C32.7377 28.7495 32.978 28.8762 33.3165 28.9638L34.1262 29.1733C34.5381 29.2798 34.8328 29.455 35.0104 29.6989C35.1903 29.9427 35.2507 30.241 35.1915 30.5938C35.1441 30.8944 35.0199 31.1596 34.8186 31.3892C34.6198 31.6165 34.3664 31.794 34.0587 31.9219C33.7509 32.0497 33.4076 32.1136 33.0289 32.1136C32.5175 32.1136 32.1174 31.9941 31.8286 31.755C31.5397 31.5135 31.3847 31.169 31.3634 30.7216L31.7931 30.6364C31.8096 30.9891 31.9256 31.2578 32.1411 31.4425C32.3565 31.6248 32.6631 31.7159 33.0608 31.7159C33.513 31.7159 33.8953 31.6082 34.2078 31.3928C34.5203 31.1773 34.7038 30.9027 34.7583 30.5689C34.7985 30.3203 34.7523 30.112 34.6198 29.9439C34.4872 29.7758 34.2646 29.6527 33.9521 29.5746L33.1247 29.3615C32.6939 29.2502 32.3849 29.0727 32.1979 28.8288C32.0132 28.5826 31.9505 28.282 32.0097 27.9268C32.0594 27.638 32.1778 27.3835 32.3648 27.1634C32.5542 26.9432 32.7933 26.7715 33.0821 26.6484C33.3709 26.5253 33.6894 26.4638 34.0374 26.4638C34.5038 26.4638 34.8648 26.5739 35.1205 26.794C35.3762 27.0118 35.5371 27.3208 35.6034 27.7209ZM39.2939 26.5455L39.2265 26.9325H36.8472L36.9111 26.5455H39.2939ZM37.9303 25.2386H38.36L37.458 30.7109C37.4201 30.9335 37.432 31.1158 37.4935 31.2578C37.5574 31.3975 37.6533 31.5017 37.7812 31.5703C37.9114 31.6366 38.0593 31.6697 38.2251 31.6697C38.2984 31.6697 38.3647 31.6638 38.4239 31.652C38.4831 31.6378 38.5423 31.6224 38.6015 31.6058L38.6405 32C38.5671 32.026 38.489 32.0473 38.4062 32.0639C38.3233 32.0805 38.2274 32.0888 38.1185 32.0888C37.8912 32.0888 37.6853 32.0379 37.5006 31.9361C37.3183 31.8343 37.1798 31.6863 37.0851 31.4922C36.9928 31.2981 36.9703 31.0637 37.0177 30.7891L37.9303 25.2386ZM40.0131 32L40.9221 26.5455H41.3518L40.4427 32H40.0131ZM41.3412 25.576C41.2394 25.576 41.1541 25.5417 41.0855 25.473C41.0192 25.402 40.9908 25.3156 41.0003 25.2138C41.005 25.1286 41.0429 25.054 41.1139 24.9901C41.1849 24.9261 41.2666 24.8942 41.3589 24.8942C41.4607 24.8942 41.5448 24.9297 41.6111 25.0007C41.6773 25.0694 41.7069 25.1534 41.6998 25.2528C41.6927 25.3404 41.6537 25.4162 41.5827 25.4801C41.514 25.544 41.4335 25.576 41.3412 25.576ZM43.2765 28.4631L42.6906 32H42.2574L43.1665 26.5455H43.589L43.447 27.4084H43.4896C43.6601 27.1267 43.9015 26.9006 44.214 26.7301C44.5265 26.5597 44.8769 26.4744 45.2652 26.4744C45.6298 26.4744 45.9387 26.5526 46.192 26.7088C46.4453 26.8651 46.6265 27.0876 46.7354 27.3764C46.8443 27.6629 46.8656 28.005 46.7993 28.4027L46.1991 32H45.7659L46.3625 28.4205C46.4382 27.9564 46.3648 27.5836 46.1423 27.3018C45.9221 27.0178 45.586 26.8757 45.1338 26.8757C44.8284 26.8757 44.5443 26.942 44.2815 27.0746C44.0211 27.2071 43.8021 27.393 43.6246 27.6321C43.447 27.8688 43.331 28.1458 43.2765 28.4631ZM50.8369 26.5455L50.7694 26.9325H48.3902L48.4541 26.5455H50.8369ZM49.4733 25.2386H49.903L49.001 30.7109C48.9631 30.9335 48.9749 31.1158 49.0365 31.2578C49.1004 31.3975 49.1963 31.5017 49.3241 31.5703C49.4543 31.6366 49.6023 31.6697 49.768 31.6697C49.8414 31.6697 49.9077 31.6638 49.9669 31.652C50.0261 31.6378 50.0853 31.6224 50.1444 31.6058L50.1835 32C50.1101 32.026 50.032 32.0473 49.9491 32.0639C49.8663 32.0805 49.7704 32.0888 49.6615 32.0888C49.4342 32.0888 49.2282 32.0379 49.0436 31.9361C48.8613 31.8343 48.7228 31.6863 48.6281 31.4922C48.5358 31.2981 48.5133 31.0637 48.5606 30.7891L49.4733 25.2386ZM53.589 32.1136C53.0966 32.1136 52.6882 31.9917 52.3639 31.7479C52.0396 31.504 51.8135 31.1702 51.6856 30.7464C51.5578 30.3227 51.5389 29.8397 51.6288 29.2976C51.7188 28.7531 51.8987 28.2678 52.1686 27.8416C52.4385 27.4155 52.7687 27.0793 53.1594 26.8331C53.55 26.5869 53.9714 26.4638 54.4236 26.4638C54.729 26.4638 55.0071 26.5253 55.2581 26.6484C55.5114 26.7715 55.7245 26.9479 55.8973 27.1776C56.0701 27.4048 56.1897 27.6806 56.2559 28.005C56.3222 28.3293 56.3222 28.6939 56.2559 29.0987L56.2062 29.3686H51.8881L51.9555 28.9744H55.8369C55.9032 28.5814 55.8843 28.2263 55.7801 27.9091C55.6759 27.5895 55.5031 27.3362 55.2616 27.1491C55.0225 26.9621 54.729 26.8686 54.3809 26.8686C54.0258 26.8686 53.6873 26.9716 53.3653 27.1776C53.0457 27.3812 52.7711 27.6534 52.5415 27.9943C52.3142 28.3352 52.1627 28.7105 52.0869 29.12L52.0443 29.3402C51.9685 29.8089 51.978 30.2221 52.0727 30.5795C52.1698 30.9347 52.3497 31.2128 52.6125 31.4141C52.8753 31.6129 53.2185 31.7124 53.6423 31.7124C53.9382 31.7124 54.201 31.6626 54.4307 31.5632C54.6627 31.4614 54.8592 31.3383 55.0202 31.1939C55.1835 31.0495 55.3113 30.9098 55.4037 30.7749L55.7623 30.9347C55.6534 31.117 55.4972 31.2992 55.2936 31.4815C55.09 31.6615 54.845 31.8118 54.5585 31.9325C54.272 32.0533 53.9489 32.1136 53.589 32.1136ZM58.9078 24.7273L57.7004 32H57.2671L58.4745 24.7273H58.9078Z" fill="#4D6273"/>
<g style="mix-blend-mode:color-burn">
<ellipse cx="35.7487" cy="31.7487" rx="32" ry="3" transform="rotate(-45 35.7487 31.7487)" fill="#9A1E0D" fill-opacity="0.62"/>
</g>
<g style="mix-blend-mode:color-burn">
<ellipse cx="35.7487" cy="31.7487" rx="32" ry="3" transform="rotate(45 35.7487 31.7487)" fill="#AA1717"/>
</g>
<g style="mix-blend-mode:color-burn">
<g filter="url(#filter1_i_8_5371)">
<ellipse cx="36" cy="32" rx="32" ry="3" fill="#C82222"/>
</g>
<path d="M36 35.5C44.847 35.5 52.8633 35.1639 58.6741 34.6191C61.5766 34.347 63.9439 34.0215 65.5935 33.6559C66.4142 33.474 67.0836 33.2766 67.5581 33.0592C67.7937 32.9512 68.0096 32.8258 68.1739 32.6741C68.3372 32.5234 68.5 32.2977 68.5 32C68.5 31.7023 68.3372 31.4766 68.1739 31.3259C68.0096 31.1742 67.7937 31.0488 67.5581 30.9408C67.0836 30.7234 66.4142 30.526 65.5935 30.3441C63.9439 29.9785 61.5766 29.653 58.6741 29.3809C52.8633 28.8361 44.847 28.5 36 28.5C27.153 28.5 19.1367 28.8361 13.3259 29.3809C10.4234 29.653 8.0561 29.9785 6.40652 30.3441C5.58577 30.526 4.91639 30.7234 4.44187 30.9408C4.20627 31.0488 3.99036 31.1742 3.82606 31.3259C3.66282 31.4766 3.5 31.7023 3.5 32C3.5 32.2977 3.66282 32.5234 3.82606 32.6741C3.99036 32.8258 4.20627 32.9512 4.44187 33.0592C4.91639 33.2766 5.58577 33.474 6.40652 33.6559C8.0561 34.0215 10.4234 34.347 13.3259 34.6191C19.1367 35.1639 27.153 35.5 36 35.5Z" stroke="#F5F5F5"/>
</g>
<path d="M41.5 30L41.6123 31.382H41.9755L41.6816 32.2361L41.7939 33.618L41.5 32.7639L41.2061 33.618L41.3184 32.2361L41.0245 31.382H41.3877L41.5 30Z" fill="#D9D9D9"/>
<g style="mix-blend-mode:color-burn">
<path d="M37 0L44.1844 22.1115H67.4338L48.6247 35.7771L55.8091 57.8885L37 44.2229L18.1909 57.8885L25.3753 35.7771L6.56619 22.1115H29.8156L37 0Z" fill="#D9D9D9"/>
</g>
<g style="mix-blend-mode:color-burn">
<path d="M16.6274 9.09188L37.3427 19.6469L53.7825 3.20709L50.1455 26.1702L70.8609 36.7252L47.8977 40.3622L44.2607 63.3253L33.7057 42.61L10.7426 46.247L27.1824 29.8072L16.6274 9.09188Z" fill="#D9D9D9"/>
</g>
<defs>
<filter id="filter0_d_8_5371" x="0" y="0" width="72" height="72" filterUnits="userSpaceOnUse" color-interpolation-filters="sRGB">
<feFlood flood-opacity="0" result="BackgroundImageFix"/>
<feColorMatrix in="SourceAlpha" type="matrix" values="0 0 0 0 0 0 0 0 0 0 0 0 0 0 0 0 0 0 127 0" result="hardAlpha"/>
<feOffset dy="4"/>
<feGaussianBlur stdDeviation="2"/>
<feComposite in2="hardAlpha" operator="out"/>
<feColorMatrix type="matrix" values="0 0 0 0 0 0 0 0 0 0 0 0 0 0 0 0 0 0 0.25 0"/>
<feBlend mode="normal" in2="BackgroundImageFix" result="effect1_dropShadow_8_5371"/>
<feBlend mode="normal" in="SourceGraphic" in2="effect1_dropShadow_8_5371" result="shape"/>
</filter>
<filter id="filter1_i_8_5371" x="3" y="28" width="66" height="12" filterUnits="userSpaceOnUse" color-interpolation-filters="sRGB">
<feFlood flood-opacity="0" result="BackgroundImageFix"/>
<feBlend mode="normal" in="SourceGraphic" in2="BackgroundImageFix" result="shape"/>
<feColorMatrix in="SourceAlpha" type="matrix" values="0 0 0 0 0 0 0 0 0 0 0 0 0 0 0 0 0 0 127 0" result="hardAlpha"/>
<feOffset dy="4"/>
<feGaussianBlur stdDeviation="2"/>
<feComposite in2="hardAlpha" operator="arithmetic" k2="-1" k3="1"/>
<feColorMatrix type="matrix" values="0 0 0 0 0 0 0 0 0 0 0 0 0 0 0 0 0 0 0.25 0"/>
<feBlend mode="normal" in2="shape" result="effect1_innerShadow_8_5371"/>
</filter>
</defs>
</svg>
